<svg width="52" height="20" viewBox="0 0 52 20" fill="none" xmlns="http://www.w3.org/2000/svg">
<path d="M10.0256 5.1H17V12.0133H10.0256V5.1Z" fill="#1E1E1E"/>
<path d="M10.0256 12.0133H17L13.0769 17H6.53846L10.0256 12.0133Z" fill="#1E1E1E"/>
<path d="M0 10.2H6.97436V17H0V10.2Z" fill="#1E1E1E"/>
<path d="M7.41026 0L13.7306 9.07118e-06L6.53847 10.88L0 10.2L7.41026 0Z" fill="#1E1E1E"/>
<path d="M21.394 17C21.2807 17 21.224 16.9433 21.224 16.83V5.27C21.224 5.15667 21.2807 5.1 21.394 5.1H22.261C22.3743 5.1 22.431 5.15667 22.431 5.27V10.778C22.431 10.812 22.4423 10.8347 22.465 10.846C22.4877 10.8573 22.5047 10.846 22.516 10.812L25.797 5.219C25.8537 5.13967 25.9217 5.1 26.001 5.1H26.953C27.021 5.1 27.0663 5.12267 27.089 5.168C27.1117 5.202 27.106 5.24733 27.072 5.304L24.42 9.911C24.3973 9.95633 24.3917 9.99033 24.403 10.013L27.327 16.796L27.344 16.864C27.344 16.9547 27.293 17 27.191 17H26.222C26.1313 17 26.069 16.9547 26.035 16.864L23.587 11.084C23.5757 11.0387 23.5473 11.0387 23.502 11.084L22.448 12.716C22.4367 12.7273 22.431 12.7557 22.431 12.801V16.83C22.431 16.9433 22.3743 17 22.261 17H21.394ZM30.5461 17.136C29.6734 17.136 28.9651 16.864 28.4211 16.32C27.8884 15.776 27.6221 15.0563 27.6221 14.161V7.939C27.6221 7.04367 27.8884 6.324 28.4211 5.78C28.9651 5.236 29.6734 4.964 30.5461 4.964C31.4301 4.964 32.1441 5.236 32.6881 5.78C33.2321 6.324 33.5041 7.04367 33.5041 7.939V14.161C33.5041 15.045 33.2321 15.7647 32.6881 16.32C32.1441 16.864 31.4301 17.136 30.5461 17.136ZM30.5461 16.082C31.0674 16.082 31.4868 15.912 31.8041 15.572C32.1328 15.2207 32.2971 14.773 32.2971 14.229V7.888C32.2971 7.33267 32.1328 6.885 31.8041 6.545C31.4868 6.19367 31.0674 6.018 30.5461 6.018C30.0361 6.018 29.6224 6.19367 29.3051 6.545C28.9878 6.885 28.8291 7.33267 28.8291 7.888V14.229C28.8291 14.773 28.9878 15.2207 29.3051 15.572C29.6224 15.912 30.0361 16.082 30.5461 16.082ZM39.574 17C39.472 17 39.404 16.9547 39.37 16.864L37.636 11.611C37.6247 11.577 37.602 11.56 37.568 11.56H36.089C36.0437 11.56 36.021 11.5827 36.021 11.628V16.83C36.021 16.9433 35.9644 17 35.851 17H34.984C34.8707 17 34.814 16.9433 34.814 16.83V5.27C34.814 5.15667 34.8707 5.1 34.984 5.1H37.789C38.6164 5.1 39.285 5.406 39.795 6.018C40.305 6.61867 40.56 7.40633 40.56 8.381C40.56 9.11767 40.4014 9.75233 40.084 10.285C39.7667 10.8177 39.336 11.1917 38.792 11.407C38.7467 11.4183 38.7297 11.4467 38.741 11.492L40.594 16.813L40.611 16.881C40.611 16.9603 40.56 17 40.458 17H39.574ZM36.089 6.154C36.0437 6.154 36.021 6.17667 36.021 6.222V10.523C36.021 10.5683 36.0437 10.591 36.089 10.591H37.619C38.1404 10.591 38.5597 10.3927 38.877 9.996C39.1944 9.588 39.353 9.04967 39.353 8.381C39.353 7.71233 39.1944 7.174 38.877 6.766C38.5597 6.358 38.1404 6.154 37.619 6.154H36.089ZM46.8901 5.984C46.8901 6.09733 46.8335 6.154 46.7201 6.154H42.7761C42.7308 6.154 42.7081 6.17667 42.7081 6.222V10.438C42.7081 10.4833 42.7308 10.506 42.7761 10.506H45.2581C45.3715 10.506 45.4281 10.5627 45.4281 10.676V11.407C45.4281 11.5203 45.3715 11.577 45.2581 11.577H42.7761C42.7308 11.577 42.7081 11.5997 42.7081 11.645V15.878C42.7081 15.9233 42.7308 15.946 42.7761 15.946H46.7201C46.8335 15.946 46.8901 16.0027 46.8901 16.116V16.83C46.8901 16.9433 46.8335 17 46.7201 17H41.6711C41.5578 17 41.5011 16.9433 41.5011 16.83V5.27C41.5011 5.15667 41.5578 5.1 41.6711 5.1H46.7201C46.8335 5.1 46.8901 5.15667 46.8901 5.27V5.984Z" fill="#747474"/>
</svg>
