<svg width="76" height="32" viewBox="0 0 76 32" fill="none" xmlns="http://www.w3.org/2000/svg">
<path d="M15.9231 8.1H27V19.08H15.9231V8.1Z" fill="#C0CCDC"/>
<path d="M15.9231 19.08H27L21.5 27H10.3846L15.9231 19.08Z" fill="#C0CCDC"/>
<path d="M0 16.2H11.0769V27H0V16.2Z" fill="#C0CCDC"/>
<path d="M11.7692 0L21.8074 1.44072e-05L11.0769 16.2H0L11.7692 0Z" fill="#C0CCDC"/>
<path d="M34.214 27C34.034 27 33.944 26.91 33.944 26.73V8.37C33.944 8.19 34.034 8.1 34.214 8.1H35.591C35.771 8.1 35.861 8.19 35.861 8.37V17.118C35.861 17.172 35.879 17.208 35.915 17.226C35.951 17.244 35.978 17.226 35.996 17.172L41.207 8.289C41.297 8.163 41.405 8.1 41.531 8.1H43.043C43.151 8.1 43.223 8.136 43.259 8.208C43.295 8.262 43.286 8.334 43.232 8.424L39.02 15.741C38.984 15.813 38.975 15.867 38.993 15.903L43.637 26.676L43.664 26.784C43.664 26.928 43.583 27 43.421 27H41.882C41.738 27 41.639 26.928 41.585 26.784L37.697 17.604C37.679 17.532 37.634 17.532 37.562 17.604L35.888 20.196C35.87 20.214 35.861 20.259 35.861 20.331V26.73C35.861 26.91 35.771 27 35.591 27H34.214ZM48.7497 27.216C47.3637 27.216 46.2387 26.784 45.3747 25.92C44.5287 25.056 44.1057 23.913 44.1057 22.491V12.609C44.1057 11.187 44.5287 10.044 45.3747 9.18C46.2387 8.316 47.3637 7.884 48.7497 7.884C50.1537 7.884 51.2877 8.316 52.1517 9.18C53.0157 10.044 53.4477 11.187 53.4477 12.609V22.491C53.4477 23.895 53.0157 25.038 52.1517 25.92C51.2877 26.784 50.1537 27.216 48.7497 27.216ZM48.7497 25.542C49.5777 25.542 50.2437 25.272 50.7477 24.732C51.2697 24.174 51.5307 23.463 51.5307 22.599V12.528C51.5307 11.646 51.2697 10.935 50.7477 10.395C50.2437 9.837 49.5777 9.558 48.7497 9.558C47.9397 9.558 47.2827 9.837 46.7787 10.395C46.2747 10.935 46.0227 11.646 46.0227 12.528V22.599C46.0227 23.463 46.2747 24.174 46.7787 24.732C47.2827 25.272 47.9397 25.542 48.7497 25.542ZM63.0882 27C62.9262 27 62.8182 26.928 62.7642 26.784L60.0102 18.441C59.9922 18.387 59.9562 18.36 59.9022 18.36H57.5532C57.4812 18.36 57.4452 18.396 57.4452 18.468V26.73C57.4452 26.91 57.3552 27 57.1752 27H55.7982C55.6182 27 55.5282 26.91 55.5282 26.73V8.37C55.5282 8.19 55.6182 8.1 55.7982 8.1H60.2532C61.5672 8.1 62.6292 8.586 63.4392 9.558C64.2492 10.512 64.6542 11.763 64.6542 13.311C64.6542 14.481 64.4022 15.489 63.8982 16.335C63.3942 17.181 62.7102 17.775 61.8462 18.117C61.7742 18.135 61.7472 18.18 61.7652 18.252L64.7082 26.703L64.7352 26.811C64.7352 26.937 64.6542 27 64.4922 27H63.0882ZM57.5532 9.774C57.4812 9.774 57.4452 9.81 57.4452 9.882V16.713C57.4452 16.785 57.4812 16.821 57.5532 16.821H59.9832C60.8112 16.821 61.4772 16.506 61.9812 15.876C62.4852 15.228 62.7372 14.373 62.7372 13.311C62.7372 12.249 62.4852 11.394 61.9812 10.746C61.4772 10.098 60.8112 9.774 59.9832 9.774H57.5532ZM74.7079 9.504C74.7079 9.684 74.6179 9.774 74.4379 9.774H68.1739C68.1019 9.774 68.0659 9.81 68.0659 9.882V16.578C68.0659 16.65 68.1019 16.686 68.1739 16.686H72.1159C72.2959 16.686 72.3859 16.776 72.3859 16.956V18.117C72.3859 18.297 72.2959 18.387 72.1159 18.387H68.1739C68.1019 18.387 68.0659 18.423 68.0659 18.495V25.218C68.0659 25.29 68.1019 25.326 68.1739 25.326H74.4379C74.6179 25.326 74.7079 25.416 74.7079 25.596V26.73C74.7079 26.91 74.6179 27 74.4379 27H66.4189C66.2389 27 66.1489 26.91 66.1489 26.73V8.37C66.1489 8.19 66.2389 8.1 66.4189 8.1H74.4379C74.6179 8.1 74.7079 8.19 74.7079 8.37V9.504Z" fill="#7B7B7B"/>
</svg>
